<?xml version="1.0" encoding="UTF-8"?>
<svg id="Layer_1" data-name="Layer 1" xmlns="http://www.w3.org/2000/svg" viewBox="0 0 673.14 730.83">
  <defs>
    <style>
      .cls-1 {
        stroke-width: 0px;
      }
    </style>
  </defs>
  <path class="cls-1" d="m636.09,290.17c-15.18-28.51-33.87-51.27-55.55-67.66-18.63-14.08-39.15-23.28-61.27-27.51v-12.29C519.28,81.96,437.31,0,336.57,0s-182.71,81.96-182.71,182.71v12.29c-22.12,4.22-42.64,13.42-61.27,27.51-21.68,16.39-40.37,39.15-55.55,67.66C9.7,341.51,0,399.06,0,432.73c0,63.5,4.59,110.3,14.45,147.29,11.21,42.05,30.04,73.6,57.56,96.45,26.54,22.04,60.75,36.16,107.66,44.45,38.82,6.86,87.21,9.92,156.9,9.92s118.08-3.06,156.9-9.92c46.91-8.29,81.12-22.41,107.66-44.45,27.52-22.85,46.35-54.4,57.56-96.45,9.86-36.99,14.45-83.79,14.45-147.29,0-33.67-9.7-91.22-37.04-142.56Zm-424.54-107.46c0-68.93,56.08-125.01,125.01-125.01s125.01,56.08,125.01,125.01v9.62h-250.02v-9.62Z"/>
</svg>