<?xml version="1.0" encoding="utf-8"?>
<!-- Generator: Adobe Illustrator 28.0.0, SVG Export Plug-In . SVG Version: 6.00 Build 0)  -->
<svg version="1.1" id="Layer_1" xmlns="http://www.w3.org/2000/svg" xmlns:xlink="http://www.w3.org/1999/xlink" x="0px" y="0px"
	 viewBox="0 0 1024 1280" style="enable-background:new 0 0 1024 1280;" xml:space="preserve">
<style type="text/css">
	.st0{fill:#965AFD;}
	.st1{fill:#4922D1;}
	.st2{fill:#FA4B0F;}
	.st3{fill:#8450FD;}
	.st4{fill:#FE7E3A;}
	.st5{fill:#2FBAFE;}
	.st6{fill:#FD954A;}
	.st7{fill:#FB4A0F;}
	.st8{fill:#5432D3;}
	.st9{fill:#6FBCF2;}
	.st10{fill:#6AB8F5;}
	.st11{fill:#FD9649;}
</style>
<g>
	<path class="st0" d="M380.99,812.44c1.42-1.73,3.4-1.05,5.14-1.05c13.99-0.05,27.98-0.17,41.97,0.05
		c4.35,0.07,8.52-1.12,12.87-1.11c0.01,1.46-1.76,0.93-1.94,2.01c0,0-0.48,0.04-0.48,0.04s-0.49-0.01-0.49-0.01
		C419.03,812.4,400.01,812.42,380.99,812.44z"/>
	<path class="st1" d="M380.99,812.44c19.02-0.02,38.04-0.04,57.06-0.06c-0.42,0.94-1.27,0.93-2.09,0.92
		c-18.61-0.08-37.23-0.17-55.85-0.26C380.4,812.85,380.69,812.64,380.99,812.44z"/>
	<path class="st2" d="M665.11,661.58c0.3,0.67,0.6,1.33,0.9,2c0,16.61,0.01,33.23,0.01,49.84c-0.28,0.33-0.56,0.66-0.84,0.99
		C664.62,696.8,664.81,679.19,665.11,661.58z"/>
	<path class="st3" d="M366.28,787.79c21.93-55.28,43.74-110.61,65.62-165.9c12.7-32.1,25.49-64.17,38.19-96.27
		c27.94-70.64,55.87-141.28,83.75-211.94c4.53-11.47,13.16-16.75,25.05-17.49c0.12-0.01,0.24,0.03,0.34,0.1
		c1.57,1.14,3.41,0.61,5.12,0.62c15.87,0.05,31.74,0.03,47.62,0.03c11.36-0.36,18.36,4.51,20.53,13.9c0.81,3.53-0.33,6.6-1.53,9.59
		c-18.98,47.36-38.07,94.69-57.11,142.03c-22.62,56.23-45.27,112.44-67.8,168.7c-22.1,55.17-44.05,110.39-66.09,165.58
		c-3.67,9.19-10.81,14.87-19.22,15.54c-0.54,0.04-0.79-0.69-0.32-0.96c0.01,0,0.02-0.01,0.03-0.01c0.45-0.27,0.23-0.98-0.29-0.96
		c-4.05,0.12-7.98,1.16-12.05,1.1c-13.99-0.22-27.98-0.11-41.97-0.05c-1.86,0.01-3.98-0.78-5.41,1.43
		c-0.12,0.18-0.33,0.29-0.55,0.24C365.52,810.25,360.84,801.5,366.28,787.79z"/>
	<path class="st4" d="M665.11,661.58c1.49-11.67,8.51-19.6,17.55-26.27c33.24-24.55,66.44-49.17,99.65-73.76
		c1.33-0.99,2.69-1.94,4.04-2.9c5.87-4.17,5.93-4.25,0.34-8.37c-32.42-23.9-64.98-47.6-97.2-71.77
		c-6.16-4.62-13.13-8.47-17.88-14.92c-3.72-5.06-5.78-10.69-6.45-16.88c0.28-0.32,0.56-0.63,0.83-0.95c1.07-0.84,0.93-2.04,0.96-3.2
		c0.49-17.08-1.02-34.18,0.82-51.24c0.11-1.03-0.8-1.32-1.65-1.5c2.4-6.34,6.4-9.87,13.62-11.25c9.71-1.85,15.09,4.57,21.34,9.1
		c31.13,22.56,62,45.48,93.01,68.2c24.64,18.06,49.38,36,74.03,54.05c7.35,5.38,15.01,10.41,21.28,17.12
		c2.99,3.21,5.11,7.12,6.21,11.19c4.22,15.58,3.41,30.57-7.61,43.46c-5.33,6.23-12.67,10.18-19.14,15.09
		c-23.63,17.96-47.35,35.81-71.13,53.56c-33.88,25.29-67.86,50.43-101.76,75.68c-11.39,8.48-28.58,5.53-30.81-11.64
		c0.28-0.33,0.56-0.66,0.84-0.99c1.08-0.84,0.94-2.05,0.94-3.2c0.01-14.48,0.01-28.97,0-43.45c0-1.15,0.14-2.36-0.96-3.19
		C665.71,662.91,665.41,662.24,665.11,661.58z"/>
	<path class="st5" d="M360.1,710.56c0.78,8.45-2.98,14.64-10.24,18.34c-7.08,3.61-13.87,1.7-20-2.89
		c-32.99-24.65-65.96-49.34-98.97-73.98c-29.15-21.76-58.17-43.68-87.58-65.07c-10.19-7.41-18.85-25.19-14.93-41.32
		c3.45-14.2,13.15-22.45,23.94-30.5c59.52-44.42,118.94-88.97,178.42-133.45c5.89-4.41,12.71-5.7,19.25-2.47
		c6,2.96,9.88,8.26,10.18,15.44c0.04,17.14,0.09,34.29,0.13,51.43c-0.59,8.8-4.52,15.69-11.61,20.98
		c-37.27,27.79-74.51,55.64-111.73,83.49c-4.93,3.69-4.89,3.88,0.21,7.62c35.85,26.36,71.73,52.69,107.57,79.07
		c8.77,6.45,14.92,14.55,15.56,25.91C360.23,678.97,360.16,694.76,360.1,710.56z"/>
	<path class="st6" d="M666.14,389.83c0.85,0.18,1.76,0.47,1.65,1.5c-1.83,17.06-0.32,34.17-0.82,51.24
		c-0.03,1.16,0.11,2.36-0.96,3.2c-0.01-15.89,0-31.79-0.06-47.68c-0.01-1.75,0.65-3.67-0.83-5.21
		C665.46,391.86,665.8,390.85,666.14,389.83z"/>
	<path class="st7" d="M665.12,392.88c1.48,1.54,0.82,3.46,0.83,5.21c0.06,15.89,0.05,31.79,0.06,47.68
		c-0.28,0.32-0.56,0.63-0.83,0.95C664.64,428.77,664.78,410.83,665.12,392.88z"/>
	<path class="st8" d="M631.95,296.94c-15.87,0-31.74,0.02-47.62-0.03c-1.76-0.01-3.66,0.55-5.27-0.73
		c16.74-0.04,33.48-0.1,50.22-0.12C630.24,296.05,631.32,295.88,631.95,296.94z"/>
	<path class="st9" d="M360.29,446.09c-0.04-17.14-0.09-34.29-0.13-51.43c0.94,0.92,0.85,2.11,0.85,3.27
		c0.01,15.11,0.02,30.23-0.02,45.34C360.99,444.21,360.54,445.15,360.29,446.09z"/>
	<path class="st10" d="M360.1,710.56c0.06-15.79,0.12-31.58,0.18-47.38c1.1,1.48,0.71,3.19,0.71,4.82
		c0.03,12.29,0.08,24.59,0.01,36.88C361,706.77,361.75,708.89,360.1,710.56z"/>
	<path class="st11" d="M666.03,713.42c0-16.61-0.01-33.23-0.01-49.84c1.1,0.83,0.96,2.04,0.96,3.19c0,14.48,0,28.97,0,43.45
		C666.97,711.37,667.11,712.58,666.03,713.42z"/>
</g>
</svg>
