<?xml version="1.0" encoding="UTF-8"?>
<svg id="Layer_2" data-name="Layer 2" xmlns="http://www.w3.org/2000/svg" viewBox="0 0 91.14 57.86">
  <defs>
    <style>
      .cls-1 {
        fill: #ffa200;
      }

      .cls-1, .cls-2, .cls-3 {
        stroke-width: 0px;
      }

      .cls-2 {
        fill: #00cfff;
      }

      .cls-3 {
        fill: #3d80ff;
      }
    </style>
  </defs>
  <path class="cls-2" d="m12.34,29.57l.43-.18-.31-.61,13.84-10.29.31.61,1.78-.92.73,1.16.31-.24,1.78,2.94-.43.18.31.55-.43.31.31.61-3.31,1.96-.43-.61-7.16,6,7.16,6,.43-.61,3.31,1.96-.31.61.43.31-.31.55.43.18-1.78,2.94-.31-.24-.73,1.16-1.78-.92-.31.61-13.84-10.29.31-.61-.43-.18v-2.94Z"/>
  <path class="cls-3" d="m53.85,0h2.82v.67h.61v.73h.73v2.76h-.73v1.35h-.61v1.41h-.73v1.41h-.67v2.02h-.73v2.02h-.67v1.41h-.73v2.08h-.61v1.41h-.64v1.35h-.7v2.69h-.62v2.14h-.75v2.02h-.69v1.35h-.75v2.14h-.61v2.02h-.73v1.41h-.67v2.02h-.73v2.14h-.67v1.35h-.73v2.69h-.61v1.41h-.73v1.35h-.67v2.76h-.61v2.14h-.73v2.02h-.67v2.76h-.73v2.82h-.61v.61h-.73v.73h-2.08v.67h-.73v-.67h-.61v-.73h-.73v-2.02h.73v-2.76h.61v-2.02h.73v-2.14h.67v-2.02h.73v-1.41h.67v-1.35h.73v-2.14h.61v-2.02h.73v-2.02h.67v-2.14h.73v-1.41h.61v-1.35h.67v-2.02h.73v-2.82h.61v-2.02h.73v-1.35h.67v-2.14h.73v-2.02h.67v-2.02h.73v-2.14h.61v-1.35h.75v-2.08h.69v-2.08h.75v-2.02h.62v-2.08h.7v-1.35h.64v-2.14h.61V.67h.73v-.67Z"/>
  <path class="cls-1" d="m79.56,32.51l-.43.18.31.61-13.84,10.29-.31-.61-1.78.92-.73-1.16-.31.24-1.78-2.94.43-.18-.31-.55.43-.31-.31-.61,3.31-1.96.43.61,7.16-6-7.16-6-.43.61-3.31-1.96.31-.61-.43-.31.31-.55-.43-.18,1.78-2.94.31.24.73-1.16,1.78.92.31-.61,13.84,10.29-.31.61.43.18v2.94Z"/>
</svg>